:FULLY-SPECIFIED
:FORCE-ALL-JOINTS-BE-3DOF
:DEGREES
918
root -0.208812 14.1228 -36.3517 372.265 -27.0419 343.483
lfemur -64.2829 31.8182 -0.329596
ltibia 69.7139 0 0
lfoot -6.41006 -9.6965 0
ltoes -8.29082 0 0
rfemur 6.02026 -8.05008 13.2971
rtibia 38.8123 0 0
rfoot -22.5177 -28.9552 0
rtoes -27.3126 0 0
lowerback 11.4395 0.0725354 6.52778
upperback -1.48379 1.41991 5.63686
thorax -8.03699 0.515546 2.08282
lowerneck -3.86063 7.688 2.61636
upperneck 4.14042 10.1396 -0.557218
head 2.12495 5.07953 -0.29487
lclavicle -2.14282e-14 2.41739e-14 0
lhumerus 12.9796 13.0107 73.7424
lradius 20.0936 0 0
lwrist -45.1781 0 0
lhand -28.4188 29.0387 0
lfingers 7.12502 0 0
lthumb -1.57509 58.9954 0
rclavicle -3.58498e-14 -3.24814e-14 0
rhumerus -76.87 21.5368 -96.4727
rradius 109.981 0 0
rwrist -68.1985 0 0
rhand -11.0701 -24.5214 0
rfingers 7.12502 0 0
rthumb 14.8184 -53.9421 0
919
root -0.201418 14.1112 -36.3476 372.258 -26.9245 343.408
lfemur -64.3944 31.8756 -0.389772
ltibia 69.8996 0 0
lfoot -6.44527 -9.77836 0
ltoes -7.99071 0 0
rfemur 6.10519 -8.09204 13.289
rtibia 38.8086 0 0
rfoot -22.506 -28.9491 0
rtoes -27.3927 0 0
lowerback 11.4396 0.0291261 6.58995
upperback -1.48463 1.37589 5.71519
thorax -8.03989 0.492832 2.14067
lowerneck -3.90316 7.6932 2.64047
upperneck 4.22089 10.1469 -0.60875
head 2.16383 5.08225 -0.310377
lclavicle -2.14752e-14 2.26182e-14 0
lhumerus 12.6797 10.5333 73.9799
lradius 20.4721 0 0
lwrist -45.328 0 0
lhand -28.2552 29.1546 0
lfingers 7.12502 0 0
lthumb -1.32691 58.9404 0
rclavicle -3.56297e-14 -3.40916e-14 0
rhumerus -76.8811 21.5253 -96.4334
rradius 109.997 0 0
rwrist -68.194 0 0
rhand -11.0496 -24.5404 0
rfingers 7.12502 0 0
rthumb 14.8009 -53.9572 0
920
root -0.194865 14.1033 -36.3351 372.213 -26.9933 343.373
lfemur -64.506 31.933 -0.449948
ltibia 70.0854 0 0
lfoot -6.48048 -9.86022 0
ltoes -7.6906 0 0
rfemur 6.19012 -8.134 13.2809
rtibia 38.8048 0 0
rfoot -22.4943 -28.9431 0
rtoes -27.4728 0 0
lowerback 11.3876 0.0268509 6.61333
upperback -1.45583 1.37065 5.76385
thorax -7.97982 0.491457 2.17994
lowerneck -3.90984 7.72345 2.65339
upperneck 4.29391 10.1892 -0.65779
head 2.19367 5.10238 -0.323813
lclavicle -2.15222e-14 2.10625e-14 0
lhumerus 12.3797 8.05583 74.2173
lradius 20.8507 0 0
lwrist -43.1709 0 0
lhand -28.0916 29.2704 0
lfingers 7.12502 0 0
lthumb -1.16279 59.0539 0
rclavicle -3.54095e-14 -3.57017e-14 0
rhumerus -76.8922 21.5137 -96.394
rradius 110.013 0 0
rwrist -68.1894 0 0
rhand -11.0292 -24.5594 0
rfingers 7.12502 0 0
rthumb 14.7835 -53.9724 0
921
root -0.187022 14.0946 -36.3212 372.222 -26.9796 343.346
lfemur -64.6175 31.9903 -0.510124
ltibia 70.2711 0 0
lfoot -6.5157 -9.94208 0
ltoes -7.39048 0 0
rfemur 6.27505 -8.17596 13.2728
rtibia 38.8011 0 0
rfoot -22.4826 -28.9371 0
rtoes -27.5529 0 0
lowerback 11.2822 -0.00685124 6.67039
upperback -1.45189 1.32459 5.8152
thorax -7.91592 0.468645 2.21092
lowerneck -3.90288 7.74249 2.7256
upperneck 4.35596 10.2174 -0.782302
head 2.22542 5.11452 -0.371312
lclavicle -2.15692e-14 1.95068e-14 0
lhumerus 12.0797 5.57841 74.4548
lradius 21.2293 0 0
lwrist -41.0139 0 0
lhand -27.928 29.3863 0
lfingers 7.12502 0 0
lthumb -0.998672 59.1673 0
rclavicle -3.51894e-14 -3.73119e-14 0
rhumerus -76.9033 21.5022 -96.3547
rradius 110.029 0 0
rwrist -68.1848 0 0
rhand -11.0087 -24.5784 0
rfingers 7.12502 0 0
rthumb 14.766 -53.9875 0
922
root -0.178876 14.085 -36.3119 372.251 -26.9615 343.292
lfemur -64.729 32.0477 -0.5703
ltibia 70.4569 0 0
lfoot -6.55091 -10.0239 0
ltoes -7.09037 0 0
rfemur 6.35998 -8.21793 13.2647
rtibia 38.7871 0 0
rfoot -22.4709 -28.931 0
rtoes -27.6331 0 0
lowerback 11.2363 -0.0250223 6.72991
upperback -1.46077 1.30766 5.87112
thorax -7.90006 0.458982 2.24094
lowerneck -3.93502 7.76433 2.79797
upperneck 4.43262 10.2461 -0.863506
head 2.26655 5.12786 -0.403477
lclavicle -2.16162e-14 1.79511e-14 0
lhumerus 11.7798 3.10099 74.6922
lradius 21.6078 0 0
lwrist -38.8568 0 0
lhand -27.7644 29.5021 0
lfingers 7.12502 0 0
lthumb -0.834553 59.2808 0
rclavicle -3.49692e-14 -3.8922e-14 0
rhumerus -76.9144 21.4906 -96.3153
rradius 110.044 0 0
rwrist -68.1803 0 0
rhand -10.9883 -24.5973 0
rfingers 7.12502 0 0
rthumb 14.7485 -54.0026 0
923
root -0.168391 14.0753 -36.3003 372.16 -26.8373 343.304
lfemur -64.8405 32.105 -0.630476
ltibia 70.6426 0 0
lfoot -6.58612 -10.1058 0
ltoes -6.79026 0 0
rfemur 6.4449 -8.25989 13.2566
rtibia 38.773 0 0
rfoot -22.4592 -28.925 0
rtoes -27.7132 0 0
lowerback 11.2408 -0.115182 6.80145
upperback -1.45121 1.20014 5.92606
thorax -7.89393 0.404703 2.27944
lowerneck -3.88537 7.80382 2.82784
upperneck 4.47592 10.3031 -0.941999
head 2.27979 5.1549 -0.43136
lclavicle -2.16632e-14 1.63954e-14 0
lhumerus 11.4798 0.62357 74.9297
lradius 21.9864 0 0
lwrist -36.6997 0 0
lhand -27.6008 29.618 0
lfingers 7.12502 0 0
lthumb -0.670434 59.3943 0
rclavicle -3.47491e-14 -4.05322e-14 0
rhumerus -76.9255 21.4791 -96.276
rradius 110.06 0 0
rwrist -68.1757 0 0
rhand -10.9679 -24.6163 0
rfingers 7.12502 0 0
rthumb 14.7311 -54.0178 0
924
root -0.159253 14.0667 -36.2883 372.157 -26.7705 343.261
lfemur -64.9521 32.1624 -0.690652
ltibia 70.8284 0 0
lfoot -6.62133 -10.1877 0
ltoes -6.49015 0 0
rfemur 6.52983 -8.30185 13.2485
rtibia 38.759 0 0
rfoot -22.4475 -28.9189 0
rtoes -27.7933 0 0
lowerback 11.2199 -0.161175 6.87532
upperback -1.46727 1.15264 6.00056
thorax -7.90094 0.379414 2.32747
lowerneck -3.86097 7.81912 2.8566
upperneck 4.53031 10.3274 -1.02445
head 2.30088 5.16551 -0.460181
lclavicle -2.17102e-14 1.48397e-14 0
lhumerus 11.1798 -1.85385 75.1671
lradius 22.365 0 0
lwrist -34.5427 0 0
lhand -27.4372 29.7338 0
lfingers 7.12502 0 0
lthumb -0.506316 59.5078 0
rclavicle -3.45289e-14 -4.21423e-14 0
rhumerus -76.9366 21.4675 -96.2366
rradius 110.076 0 0
rwrist -68.1712 0 0
rhand -10.9474 -24.6353 0
rfingers 7.12502 0 0
rthumb 14.7136 -54.0329 0
925
root -0.150218 14.0582 -36.2789 372.159 -26.7707 343.206
lfemur -65.0636 32.2197 -0.750828
ltibia 71.0141 0 0
lfoot -6.65654 -10.2695 0
ltoes -6.19004 0 0
rfemur 6.61476 -8.34382 13.2404
rtibia 38.745 0 0
rfoot -22.4358 -28.9129 0
rtoes -27.8734 0 0
lowerback 11.2078 -0.169842 6.93913
upperback -1.46556 1.1518 6.05903
thorax -7.89293 0.377348 2.35501
lowerneck -3.87389 7.83276 2.88405
upperneck 4.60076 10.3451 -1.04299
head 2.32985 5.1743 -0.467298
lclavicle -2.17572e-14 1.3284e-14 0
lhumerus 10.8799 -4.33127 75.4045
lradius 22.7435 0 0
lwrist -32.3856 0 0
lhand -27.2736 29.8497 0
lfingers 7.12502 0 0
lthumb -0.342197 59.6212 0
rclavicle -3.43088e-14 -4.37525e-14 0
rhumerus -76.9477 21.4559 -96.1973
rradius 110.092 0 0
rwrist -68.1666 0 0
rhand -10.927 -24.6543 0
rfingers 7.12502 0 0
rthumb 14.6961 -54.048 0
926
root -0.141285 14.0502 -36.2676 372.127 -26.7991 343.152
lfemur -65.1751 32.277 -0.811004
ltibia 71.1999 0 0
lfoot -6.69175 -10.3514 0
ltoes -5.88993 0 0
rfemur 6.69969 -8.38578 13.2323
rtibia 38.7309 0 0
rfoot -22.4241 -28.9068 0
rtoes -27.9984 0 0
lowerback 11.2233 -0.200991 6.96009
upperback -1.45622 1.1192 6.14513
thorax -7.89423 0.362198 2.44215
lowerneck -3.84473 7.86387 2.88507
upperneck 4.65982 10.3903 -1.0852
head 2.34792 5.19586 -0.478554
lclavicle -2.18042e-14 1.17283e-14 0
lhumerus 10.5799 -6.8087 75.642
lradius 23.1221 0 0
lwrist -30.2285 0 0
lhand -27.1099 29.9655 0
lfingers 7.12502 0 0
lthumb -0.178078 59.7347 0
rclavicle -3.40886e-14 -4.53627e-14 0
rhumerus -76.9588 21.4444 -96.1579
rradius 110.108 0 0
rwrist -68.1621 0 0
rhand -10.9065 -24.6733 0
rfingers 7.12502 0 0
rthumb 14.6787 -54.0632 0
927
root -0.132334 14.0415 -36.255 372.135 -26.8682 343.077
lfemur -65.2866 32.3344 -0.87118
ltibia 71.3856 0 0
lfoot -6.72696 -10.4332 0
ltoes -5.58981 0 0
rfemur 6.726 -8.43223 13.1545
rtibia 38.7169 0 0
rfoot -22.4124 -28.9008 0
rtoes -28.1233 0 0
lowerback 11.1883 -0.189746 7.01235
upperback -1.43867 1.13985 6.2185
thorax -7.85619 0.372021 2.48765
lowerneck -3.84004 7.86565 2.90813
upperneck 4.71568 10.3938 -1.1195
head 2.36936 5.19714 -0.491537
lclavicle -2.0402e-14 1.0635e-14 0
lhumerus 10.28 -9.28612 75.8794
lradius 23.5007 0 0
lwrist -28.0715 0 0
lhand -26.9463 30.0814 0
lfingers 7.12502 0 0
lthumb -0.0139589 59.8482 0
rclavicle -3.38685e-14 -4.69728e-14 0
rhumerus -76.97 21.4328 -96.1186
rradius 110.124 0 0
rwrist -68.1575 0 0
rhand -10.8861 -24.6923 0
rfingers 7.12502 0 0
rthumb 14.6612 -54.0783 0
